<svg xmlns="http://www.w3.org/2000/svg" xmlns:xlink="http://www.w3.org/1999/xlink" contentStyleType="text/css" data-diagram-type="SEQUENCE" height="428px" preserveAspectRatio="none" style="width:695px;height:428px;background:#FFFFFF;" version="1.1" viewBox="0 0 695 428" width="695px" zoomAndPan="magnify"><defs/><g><g><title>user</title><rect fill="#000000" fill-opacity="0.00000" height="266.0625" width="8" x="19.2681" y="81.2969"/><line style="stroke:#181818;stroke-width:0.5;stroke-dasharray:5.0,5.0;" x1="23" x2="23" y1="81.2969" y2="347.3594"/></g><g><title>sxhkd</title><rect fill="#000000" fill-opacity="0.00000" height="266.0625" width="8" x="106.7573" y="81.2969"/><line style="stroke:#181818;stroke-width:0.5;stroke-dasharray:5.0,5.0;" x1="110.0342" x2="110.0342" y1="81.2969" y2="347.3594"/></g><g><title>power</title><rect fill="#000000" fill-opacity="0.00000" height="266.0625" width="8" x="201.0322" y="81.2969"/><line style="stroke:#181818;stroke-width:0.5;stroke-dasharray:5.0,5.0;" x1="204.3965" x2="204.3965" y1="81.2969" y2="347.3594"/></g><g><title>dmenu</title><rect fill="#000000" fill-opacity="0.00000" height="266.0625" width="8" x="373.4722" y="81.2969"/><line style="stroke:#181818;stroke-width:0.5;stroke-dasharray:5.0,5.0;" x1="377.0303" x2="377.0303" y1="81.2969" y2="347.3594"/></g><g><title>powerprofilesctl</title><rect fill="#000000" fill-opacity="0.00000" height="266.0625" width="8" x="477.9995" y="81.2969"/><line style="stroke:#181818;stroke-width:0.5;stroke-dasharray:5.0,5.0;" x1="481.9141" x2="481.9141" y1="81.2969" y2="347.3594"/></g><g><title>dwmblocks</title><rect fill="#000000" fill-opacity="0.00000" height="266.0625" width="8" x="597.2925" y="81.2969"/><line style="stroke:#181818;stroke-width:0.5;stroke-dasharray:5.0,5.0;" x1="601.085" x2="601.085" y1="81.2969" y2="347.3594"/></g><g class="participant participant-head" data-participant="user"><text fill="#000000" font-family="sans-serif" font-size="14" lengthAdjust="spacing" textLength="30.5361" x="5" y="77.9951">user</text><ellipse cx="23.2681" cy="13.5" fill="#E2E2F0" rx="8" ry="8" style="stroke:#181818;stroke-width:0.5;"/><path d="M23.2681,21.5 L23.2681,48.5 M10.2681,29.5 L36.2681,29.5 M23.2681,48.5 L10.2681,63.5 M23.2681,48.5 L36.2681,63.5" fill="none" style="stroke:#181818;stroke-width:0.5;"/></g><g class="participant participant-tail" data-participant="user"><text fill="#000000" font-family="sans-serif" font-size="14" lengthAdjust="spacing" textLength="30.5361" x="5" y="359.3545">user</text><ellipse cx="23.2681" cy="371.1563" fill="#E2E2F0" rx="8" ry="8" style="stroke:#181818;stroke-width:0.5;"/><path d="M23.2681,379.1563 L23.2681,406.1563 M10.2681,387.1563 L36.2681,387.1563 M23.2681,406.1563 L10.2681,421.1563 M23.2681,406.1563 L36.2681,421.1563" fill="none" style="stroke:#181818;stroke-width:0.5;"/></g><g class="participant participant-head" data-participant="sxhkd"><rect fill="#E2E2F0" height="30.2969" rx="2.5" ry="2.5" style="stroke:#181818;stroke-width:0.5;" width="55.4463" x="83.0342" y="50"/><text fill="#000000" font-family="sans-serif" font-size="14" lengthAdjust="spacing" textLength="41.4463" x="90.0342" y="69.9951">sxhkd</text></g><g class="participant participant-tail" data-participant="sxhkd"><rect fill="#E2E2F0" height="30.2969" rx="2.5" ry="2.5" style="stroke:#181818;stroke-width:0.5;" width="55.4463" x="83.0342" y="346.3594"/><text fill="#000000" font-family="sans-serif" font-size="14" lengthAdjust="spacing" textLength="41.4463" x="90.0342" y="366.3545">sxhkd</text></g><g class="participant participant-head" data-participant="power"><rect fill="#E2E2F0" height="30.2969" rx="2.5" ry="2.5" style="stroke:#181818;stroke-width:0.5;" width="57.2715" x="176.3965" y="50"/><text fill="#000000" font-family="sans-serif" font-size="14" lengthAdjust="spacing" textLength="43.2715" x="183.3965" y="69.9951">power</text></g><g class="participant participant-tail" data-participant="power"><rect fill="#E2E2F0" height="30.2969" rx="2.5" ry="2.5" style="stroke:#181818;stroke-width:0.5;" width="57.2715" x="176.3965" y="346.3594"/><text fill="#000000" font-family="sans-serif" font-size="14" lengthAdjust="spacing" textLength="43.2715" x="183.3965" y="366.3545">power</text></g><g class="participant participant-head" data-participant="dmenu"><rect fill="#E2E2F0" height="30.2969" rx="2.5" ry="2.5" style="stroke:#181818;stroke-width:0.5;" width="62.8838" x="346.0303" y="50"/><text fill="#000000" font-family="sans-serif" font-size="14" lengthAdjust="spacing" textLength="48.8838" x="353.0303" y="69.9951">dmenu</text></g><g class="participant participant-tail" data-participant="dmenu"><rect fill="#E2E2F0" height="30.2969" rx="2.5" ry="2.5" style="stroke:#181818;stroke-width:0.5;" width="62.8838" x="346.0303" y="346.3594"/><text fill="#000000" font-family="sans-serif" font-size="14" lengthAdjust="spacing" textLength="48.8838" x="353.0303" y="366.3545">dmenu</text></g><g class="participant participant-head" data-participant="ppctl"><rect fill="#E2E2F0" height="30.2969" rx="2.5" ry="2.5" style="stroke:#181818;stroke-width:0.5;" width="126.1709" x="418.9141" y="50"/><text fill="#000000" font-family="sans-serif" font-size="14" lengthAdjust="spacing" textLength="112.1709" x="425.9141" y="69.9951">powerprofilesctl</text></g><g class="participant participant-tail" data-participant="ppctl"><rect fill="#E2E2F0" height="30.2969" rx="2.5" ry="2.5" style="stroke:#181818;stroke-width:0.5;" width="126.1709" x="418.9141" y="346.3594"/><text fill="#000000" font-family="sans-serif" font-size="14" lengthAdjust="spacing" textLength="112.1709" x="425.9141" y="366.3545">powerprofilesctl</text></g><g class="participant participant-head" data-participant="dwmblocks"><rect fill="#E2E2F0" height="30.2969" rx="2.5" ry="2.5" style="stroke:#181818;stroke-width:0.5;" width="92.415" x="555.085" y="50"/><text fill="#000000" font-family="sans-serif" font-size="14" lengthAdjust="spacing" textLength="78.415" x="562.085" y="69.9951">dwmblocks</text></g><g class="participant participant-tail" data-participant="dwmblocks"><rect fill="#E2E2F0" height="30.2969" rx="2.5" ry="2.5" style="stroke:#181818;stroke-width:0.5;" width="92.415" x="555.085" y="346.3594"/><text fill="#000000" font-family="sans-serif" font-size="14" lengthAdjust="spacing" textLength="78.415" x="562.085" y="366.3545">dwmblocks</text></g><g class="message" data-participant-1="user" data-participant-2="sxhkd"><polygon fill="#181818" points="98.7573,108.4297,108.7573,112.4297,98.7573,116.4297,102.7573,112.4297" style="stroke:#181818;stroke-width:1;"/><line style="stroke:#181818;stroke-width:1;" x1="23.2681" x2="104.7573" y1="112.4297" y2="112.4297"/><text fill="#000000" font-family="sans-serif" font-size="13" lengthAdjust="spacing" textLength="63.4893" x="30.2681" y="107.3638">Key press</text></g><g class="message" data-participant-1="sxhkd" data-participant-2="power"><polygon fill="#181818" points="193.0322,137.5625,203.0322,141.5625,193.0322,145.5625,197.0322,141.5625" style="stroke:#181818;stroke-width:1;"/><line style="stroke:#181818;stroke-width:1;" x1="110.7573" x2="199.0322" y1="141.5625" y2="141.5625"/><text fill="#000000" font-family="sans-serif" font-size="13" lengthAdjust="spacing" textLength="70.2749" x="117.7573" y="136.4966">Call for set</text></g><g class="message" data-participant-1="power" data-participant-2="dmenu"><polygon fill="#181818" points="365.4722,166.6953,375.4722,170.6953,365.4722,174.6953,369.4722,170.6953" style="stroke:#181818;stroke-width:1;"/><line style="stroke:#181818;stroke-width:1;" x1="205.0322" x2="371.4722" y1="170.6953" y2="170.6953"/><text fill="#000000" font-family="sans-serif" font-size="13" lengthAdjust="spacing" textLength="74.9785" x="212.0322" y="165.6294">List profiles</text></g><g class="message" data-participant-1="dmenu" data-participant-2="power"><polygon fill="#181818" points="216.0322,195.8281,206.0322,199.8281,216.0322,203.8281,212.0322,199.8281" style="stroke:#181818;stroke-width:1;"/><line style="stroke:#181818;stroke-width:1;" x1="210.0322" x2="376.4722" y1="199.8281" y2="199.8281"/><text fill="#000000" font-family="sans-serif" font-size="13" lengthAdjust="spacing" textLength="148.4399" x="222.0322" y="194.7622">Return selected profile</text></g><g class="message" data-participant-1="power" data-participant-2="ppctl"><polygon fill="#181818" points="469.9995,224.9609,479.9995,228.9609,469.9995,232.9609,473.9995,228.9609" style="stroke:#181818;stroke-width:1;"/><line style="stroke:#181818;stroke-width:1;" x1="205.0322" x2="475.9995" y1="228.9609" y2="228.9609"/><text fill="#000000" font-family="sans-serif" font-size="13" lengthAdjust="spacing" textLength="66.8281" x="212.0322" y="223.895">Set profile</text></g><g class="message" data-participant-1="sxhkd" data-participant-2="dwmblocks"><polygon fill="#181818" points="589.2925,254.0938,599.2925,258.0938,589.2925,262.0938,593.2925,258.0938" style="stroke:#181818;stroke-width:1;"/><line style="stroke:#181818;stroke-width:1;" x1="110.7573" x2="595.2925" y1="258.0938" y2="258.0938"/><text fill="#000000" font-family="sans-serif" font-size="13" lengthAdjust="spacing" textLength="75.3276" x="117.7573" y="253.0278">Send signal</text></g><g class="message" data-participant-1="dwmblocks" data-participant-2="power"><polygon fill="#181818" points="216.0322,283.2266,206.0322,287.2266,216.0322,291.2266,212.0322,287.2266" style="stroke:#181818;stroke-width:1;"/><line style="stroke:#181818;stroke-width:1;" x1="210.0322" x2="600.2925" y1="287.2266" y2="287.2266"/><text fill="#000000" font-family="sans-serif" font-size="13" lengthAdjust="spacing" textLength="68.6499" x="222.0322" y="282.1606">Get profile</text></g><g class="message" data-participant-1="dwmblocks" data-participant-2="dwmblocks"><line style="stroke:#181818;stroke-width:1;" x1="601.2925" x2="643.2925" y1="316.3594" y2="316.3594"/><line style="stroke:#181818;stroke-width:1;" x1="643.2925" x2="643.2925" y1="316.3594" y2="329.3594"/><line style="stroke:#181818;stroke-width:1;" x1="602.2925" x2="643.2925" y1="329.3594" y2="329.3594"/><polygon fill="#181818" points="612.2925,325.3594,602.2925,329.3594,612.2925,333.3594,608.2925,329.3594" style="stroke:#181818;stroke-width:1;"/><text fill="#000000" font-family="sans-serif" font-size="13" lengthAdjust="spacing" textLength="80.5581" x="608.2925" y="311.2935">Show profile</text></g><!--SRC=[POux4i8W48PxJh4Ny08KDXOMMka943Q6oGeCIoPwUm5DGhJR-L_VAfryX94nYg1Yije6vHBmin_CHWb- -icO1xhnFnEYxomXwqIW64B8nxOtFMxazS1252xizX-SX1E-84Ha5bKeJfsKS514qELF6PEeMZ7h1nBEbZFxYnLLRAeNJ6DqkKYe4vevkAxK3oLSSHbPySklnNS6sDwT8h783UVOz3T-kz7xQGwz0G00]--></g></svg>